<?xml version="1.0" encoding="UTF-8" standalone="no"?>
<svg width="36px" height="33px" viewBox="0 0 36 33" version="1.1" xmlns="http://www.w3.org/2000/svg" xmlns:xlink="http://www.w3.org/1999/xlink" xmlns:sketch="http://www.bohemiancoding.com/sketch/ns">
    <!-- Generator: Sketch 3.4.2 (15855) - http://www.bohemiancoding.com/sketch -->
    <title>github</title>
    <desc>Created with Sketch.</desc>
    <defs></defs>
    <g id="Page-1" stroke="none" stroke-width="1" fill="none" fill-rule="evenodd" sketch:type="MSPage">
        <g id="github" sketch:type="MSLayerGroup">
            <rect id="Rectangle-1" stroke="#979797" fill="#FFFFFF" sketch:type="MSShapeGroup" x="0" y="0" width="36" height="33" rx="100"></rect>
            <path d="M18,0 C8.061,0 0,7.387875 0,16.5 C0,23.79025 5.157,29.975 12.3105,32.157125 C13.209,32.30975 13.5,31.79825 13.5,31.36375 L13.5,28.292 C8.493,29.29025 7.4505,26.345 7.4505,26.345 C6.6315,24.437875 5.451,23.9305 5.451,23.9305 C3.8175,22.906125 5.5755,22.928125 5.5755,22.928125 C7.383,23.043625 8.334,24.629 8.334,24.629 C9.939,27.15075 12.5445,26.422 13.572,25.999875 C13.7325,24.93425 14.199,24.2055 14.715,23.794375 C10.7175,23.375 6.5145,21.960125 6.5145,15.63925 C6.5145,13.836625 7.218,12.365375 8.3685,11.210375 C8.1825,10.79375 7.566,9.114875 8.544,6.843375 C8.544,6.843375 10.056,6.400625 13.4955,8.534625 C14.931,8.168875 16.47,7.986 18,7.979125 C19.53,7.986 21.0705,8.168875 22.509,8.534625 C25.9455,6.400625 27.4545,6.843375 27.4545,6.843375 C28.434,9.11625 27.8175,10.795125 27.6315,11.210375 C28.7865,12.365375 29.484,13.838 29.484,15.63925 C29.484,21.976625 25.2735,23.37225 21.2655,23.780625 C21.9105,24.292125 22.5,25.295875 22.5,26.835875 L22.5,31.36375 C22.5,31.802375 22.788,32.318 23.7015,32.15575 C30.849,29.970875 36,23.7875 36,16.5 C36,7.387875 27.9405,0 18,0 L18,0 Z" id="Shape" fill="#000000" sketch:type="MSShapeGroup"></path>
        </g>
    </g>
</svg>