<?xml version="1.0" encoding="UTF-8" standalone="no"?>
<svg width="33px" height="33px" viewBox="0 0 33 33" version="1.1" xmlns="http://www.w3.org/2000/svg" xmlns:xlink="http://www.w3.org/1999/xlink" xmlns:sketch="http://www.bohemiancoding.com/sketch/ns">
    <!-- Generator: Sketch 3.4.2 (15855) - http://www.bohemiancoding.com/sketch -->
    <title>Shape</title>
    <desc>Created with Sketch.</desc>
    <defs></defs>
    <g id="Page-1" stroke="none" stroke-width="1" fill="none" fill-rule="evenodd" sketch:type="MSPage">
        <path d="M20.8989,11.45925 L20.8989,16.5 L23.31285,13.454375 L20.8989,11.45925 L20.8989,11.45925 Z M15.7971,17.188875 C16.8861,16.660875 17.8464,16.000875 18.6978,15.19925 L18.6978,17.081625 C17.96355,17.622 17.1699,18.08675 16.30695,18.481375 L15.7971,17.188875 L15.7971,17.188875 Z M10.42635,19.99525 C9.35055,20.109375 7.83585,20.167125 6.6,20.167125 L6.6,18.833375 C7.7352,18.833375 9.15915,18.7825 10.1508,18.678 L10.42635,19.99525 L10.42635,19.99525 Z M15.0282,18.998375 L14.9688,19.019 C14.0019,19.35725 12.9558,19.619875 11.8173,19.806875 L11.54175,18.489625 C12.6225,18.3095 13.6158,18.0565 14.5266,17.725125 L15.0282,18.998375 L15.0282,18.998375 Z M33,0 L28.05,15.125 L21.3444,10.1475 L27.7794,4.486625 L19.15155,9.455875 L13.2,8.25 L33,0 L33,0 Z M28.02525,20.321125 C28.02525,26.571875 18.4932,33 14.4606,33 L0,33 L0,2.75 L19.01955,2.75 L12.41955,5.5 L3.3,5.5 L3.3,30.25 L13.0977,30.25 C19.95345,30.25 17.4504,22 17.4504,22 C22.97625,23.266375 27.35535,22.554125 27.35535,17.58625 C27.81735,18.48 28.02525,19.3985 28.02525,20.321125 L28.02525,20.321125 Z" id="Shape" fill="#FFFFFF" sketch:type="MSShapeGroup"></path>
    </g>
</svg>