<?xml version="1.0" encoding="UTF-8" standalone="no"?>
<svg width="33px" height="33px" viewBox="0 0 33 33" version="1.1" xmlns="http://www.w3.org/2000/svg" xmlns:xlink="http://www.w3.org/1999/xlink" xmlns:sketch="http://www.bohemiancoding.com/sketch/ns">
    <!-- Generator: Sketch 3.4.2 (15855) - http://www.bohemiancoding.com/sketch -->
    <title>iconmonstr-file-22</title>
    <desc>Created with Sketch.</desc>
    <defs></defs>
    <g id="Page-1" stroke="none" stroke-width="1" fill="none" fill-rule="evenodd" sketch:type="MSPage">
        <g id="iconmonstr-file-22" sketch:type="MSLayerGroup">
            <rect id="Rectangle-3" fill="#FFFFFF" sketch:type="MSShapeGroup" x="20" y="13" width="9" height="17"></rect>
            <rect id="Rectangle-2" fill="#FFFFFF" sketch:type="MSShapeGroup" x="4" y="3" width="16" height="27"></rect>
            <path d="M15.5526244,2.75 C22.1211317,2.75 19.7219512,11 19.7219512,11 C19.7219512,11 29.204878,8.73125 29.204878,14.378375 L29.204878,30.25 L3.91707317,30.25 L3.91707317,2.75 L15.5526244,2.75 L15.5526244,2.75 Z M16.8596878,0 L0.756097561,0 L0.756097561,33 L32.3658537,33 L32.3658537,13.21925 C32.3658537,9.931625 21.8587707,0 16.8596878,0 L16.8596878,0 Z M24.4634146,17.875 L8.65853659,17.875 L8.65853659,16.5 L24.4634146,16.5 L24.4634146,17.875 L24.4634146,17.875 Z M24.4634146,20.625 L8.65853659,20.625 L8.65853659,22 L24.4634146,22 L24.4634146,20.625 L24.4634146,20.625 Z M24.4634146,24.75 L8.65853659,24.75 L8.65853659,26.125 L24.4634146,26.125 L24.4634146,24.75 L24.4634146,24.75 Z" id="Shape" fill="#000000" sketch:type="MSShapeGroup"></path>
        </g>
    </g>
</svg>