<?xml version="1.0" encoding="UTF-8" standalone="no"?>
<svg width="21px" height="24px" viewBox="0 0 21 24" version="1.1" xmlns="http://www.w3.org/2000/svg" xmlns:xlink="http://www.w3.org/1999/xlink" xmlns:sketch="http://www.bohemiancoding.com/sketch/ns">
    <!-- Generator: Sketch 3.4.2 (15855) - http://www.bohemiancoding.com/sketch -->
    <title>Shape</title>
    <desc>Created with Sketch.</desc>
    <defs></defs>
    <g id="Page-1" stroke="none" stroke-width="1" fill="none" fill-rule="evenodd" sketch:type="MSPage">
        <path d="M13.496,21 L8.564,21 L9.578,23 L12.482,23 L13.496,21 L13.496,21 Z M10.982,3.231 C11.6,3.768 12.215,4.114 12.735,4.407 C17.291,6.971 15.079,13.293 12.761,18 L9.24,18 C7.021,13.441 4.695,6.758 9.172,4.389 C9.709,4.105 10.346,3.769 10.982,3.231 L10.982,3.231 Z M10.994,1.77635684e-15 C9.75,2.489 8.006,2.359 6.614,3.7 C2.591,7.572 5.441,15.101 8.012,20 L13.989,20 C16.559,15.101 19.432,7.731 15.307,3.762 C13.9,2.409 12.228,2.465 10.994,3.99680289e-15 L10.994,1.77635684e-15 Z M21,20.349 C21,20.725 20.868,21.127 20.584,21.632 C19.967,22.729 19.166,24 19.166,24 L17.891,24 C16.603,0 18.203,22.904 18.301,22.594 C18.576,21.713 18.084,21.284 17.451,20.865 C17.155,20.67 16.541,20.305 16.18,20.093 C16.424,19.606 16.632,19.138 16.849,18.667 C17.838,19.248 19.061,20.158 19.406,20.645 C19.494,20.452 19.5,20.369 19.5,20.351 C19.5,20.143 17.98,18.163 17.402,17.418 C17.629,16.877 17.852,16.337 18.04,15.818 L19.625,17.868 C20.493,18.977 21,19.613 21,20.349 L21,20.349 Z M2.375,17.866 L3.96,15.816 C4.148,16.335 4.371,16.875 4.598,17.416 C4.02,18.162 2.5,20.141 2.5,20.349 C2.5,20.368 2.506,20.451 2.594,20.643 C2.939,20.156 4.161,19.247 5.151,18.665 C5.368,19.137 5.576,19.604 5.82,20.091 C5.46,20.303 4.845,20.669 4.549,20.863 C3.916,21.282 3.424,21.712 3.699,22.592 C3.797,22.904 4.109,24 4.109,24 L2.834,24 C-0.9,0 2.033,22.729 1.416,21.632 C1.132,21.127 1,20.725 1,20.349 C1,19.613 1.507,18.977 2.375,17.866 L2.375,17.866 Z M11,8.5 C11.827,8.5 12.5,9.173 12.5,10 C12.5,10.827 11.827,11.5 11,11.5 C10.173,11.5 9.5,10.827 9.5,10 C9.5,9.173 10.173,8.5 11,8.5 L11,8.5 Z M11,7 C9.346,7 8,8.346 8,10 C8,11.654 9.346,13 11,13 C12.654,13 14,11.654 14,10 C14,8.346 12.654,7 11,7 L11,7 Z" id="Shape" fill="#FF5A5F" sketch:type="MSShapeGroup"></path>
    </g>
</svg>